<svg width="220" height="64" viewBox="0 0 124 36" fill="none" xmlns="http://www.w3.org/2000/svg">
<path d="M40.186 10.5426C41.0335 10.5426 41.8375 10.5363 42.6404 10.5533C42.7126 10.5543 42.8199 10.6998 42.8464 10.7954C43.1342 11.8341 43.4093 12.877 43.6886 13.9188C44.4012 16.5739 45.1149 19.229 45.8297 21.8841C45.8594 21.9935 45.8934 22.1018 45.9486 22.2898C46.0039 22.1411 46.0368 22.0678 46.0591 21.9913C47.1275 18.3167 48.1938 14.64 49.2632 10.9653C49.4119 10.4556 49.3216 10.549 49.8272 10.5437C50.2966 10.5384 50.7649 10.5395 51.2344 10.5437C51.742 10.549 51.6454 10.4683 51.7845 10.9473C52.4525 13.2476 53.1142 15.5501 53.779 17.8515C54.1836 19.2534 54.5872 20.6543 54.9929 22.0561C55.0099 22.1156 55.0322 22.173 55.0757 22.3004C55.1554 22.0296 55.2212 21.8193 55.2786 21.6069C56.2461 18.0045 57.2136 14.4021 58.1769 10.7975C58.2236 10.6212 58.2852 10.532 58.4933 10.5363C59.1922 10.5511 59.891 10.5416 60.5898 10.5426C60.6588 10.5426 60.7289 10.5511 60.8319 10.5586C60.8128 10.6573 60.8022 10.7412 60.7788 10.822C59.4109 15.6627 58.0409 20.5013 56.6805 25.3442C56.6125 25.5853 56.5127 25.6607 56.2641 25.6543C55.5037 25.6362 54.7422 25.6405 53.9818 25.6522C53.7758 25.6554 53.6993 25.5874 53.642 25.3877C52.65 21.9382 51.6485 18.492 50.6481 15.0457C50.6194 14.948 50.5897 14.8502 50.4962 14.7494C50.3847 15.1243 50.2711 15.4981 50.1617 15.874C49.2346 19.057 48.3074 22.2388 47.3866 25.4238C47.3356 25.6012 47.2539 25.6554 47.0712 25.6532C46.2747 25.6426 45.4781 25.6426 44.6827 25.6532C44.4936 25.6554 44.4246 25.5853 44.3758 25.4132C43.0015 20.5459 41.624 15.6808 40.2487 10.8156C40.2275 10.7412 40.2137 10.6648 40.186 10.5426Z" fill="#0F0518"/>
<path d="M84.8848 14.8776C85.6495 14.8776 86.3972 14.8776 87.182 14.8776C87.182 15.2695 87.182 15.6529 87.182 16.0363C87.2 16.049 87.2181 16.0618 87.2372 16.0745C87.9998 15.0093 89.0575 14.576 90.3214 14.5866C91.6117 14.5972 92.6228 15.1261 93.3142 16.2466C93.3588 16.2115 93.3906 16.1956 93.4097 16.169C94.1797 15.0688 95.2672 14.6015 96.5757 14.5909C98.0253 14.5792 99.2244 15.0868 100.028 16.3443C100.536 17.1366 100.705 18.0287 100.708 18.9548C100.714 21.1054 100.708 23.2549 100.715 25.4055C100.717 25.6126 100.639 25.6562 100.451 25.653C99.8584 25.6424 99.2647 25.6381 98.6721 25.6551C98.4395 25.6615 98.3726 25.5978 98.3737 25.3609C98.3832 23.3261 98.3854 21.2902 98.3737 19.2553C98.3716 18.8963 98.3397 18.5257 98.243 18.1816C97.9797 17.2396 97.2299 16.7298 96.2262 16.7585C95.0601 16.7914 94.253 17.4743 94.0385 18.6478C93.9694 19.028 93.9471 19.421 93.945 19.8086C93.9355 21.6406 93.9408 23.4716 93.9408 25.3036C93.9408 25.4077 93.9408 25.5107 93.9408 25.6307C93.8314 25.6381 93.7549 25.6487 93.6774 25.6487C93.0848 25.6498 92.4911 25.6381 91.8985 25.6551C91.6595 25.6615 91.6011 25.584 91.6022 25.3546C91.6107 23.3463 91.6117 21.3369 91.6022 19.3286C91.6 18.9601 91.5841 18.5788 91.496 18.2241C91.1922 17.008 90.0027 16.4452 88.7453 16.9018C87.8734 17.2183 87.4358 17.8917 87.2765 18.7636C87.2139 19.1087 87.199 19.4667 87.1969 19.8192C87.1894 21.6597 87.1894 23.5002 87.1979 25.3407C87.199 25.5776 87.1427 25.6636 86.8899 25.6562C86.2283 25.6381 85.5666 25.6498 84.8859 25.6498C84.8848 22.0506 84.8848 18.48 84.8848 14.8776Z" fill="#0F0518"/>
<path d="M69.8931 16.3174C69.8931 15.8193 69.8931 15.3573 69.8931 14.8804C70.6736 14.8804 71.4224 14.8804 72.1945 14.8804C72.1945 18.4574 72.1945 22.0322 72.1945 25.6282C71.4383 25.6282 70.6843 25.6282 69.8952 25.6282C69.8952 25.1482 69.8952 24.6777 69.8952 24.1509C69.806 24.2337 69.7592 24.2688 69.7221 24.3134C68.7514 25.4848 67.4759 25.9521 65.988 25.9171C63.3276 25.8533 61.1971 23.7834 60.8297 21.1815C60.5376 19.1169 61.1143 17.3305 62.667 15.9C64.4385 14.2698 67.3516 14.1338 69.1369 15.5962C69.3939 15.8065 69.618 16.054 69.8931 16.3174ZM66.4914 23.7017C68.4434 23.6985 69.8931 22.2286 69.8941 20.2533C69.8952 18.2842 68.4349 16.8048 66.4892 16.8027C64.5298 16.8006 63.0631 18.2885 63.0737 20.2681C63.0854 22.2456 64.5383 23.7049 66.4914 23.7017Z" fill="#0F0518"/>
<path d="M105.062 21.2501C105.364 22.4566 106.054 23.2637 107.205 23.5897C108.769 24.0326 110.185 23.8021 111.313 22.4661C111.931 22.8272 112.553 23.1904 113.249 23.5961C112.911 23.9551 112.624 24.3119 112.286 24.6104C111.339 25.4441 110.207 25.8338 108.961 25.905C107.511 25.9878 106.14 25.7234 104.926 24.8769C103.684 24.0114 102.965 22.8049 102.721 21.3244C102.446 19.6634 102.741 18.1118 103.761 16.746C104.645 15.5618 105.852 14.897 107.307 14.6676C108.463 14.4849 109.587 14.5816 110.647 15.102C112.27 15.8985 113.202 17.2335 113.592 18.971C113.742 19.6411 113.757 20.3187 113.679 21.0026C113.655 21.2193 113.569 21.2533 113.38 21.2533C110.724 21.248 108.069 21.2501 105.414 21.2501C105.31 21.2501 105.205 21.2501 105.062 21.2501ZM111.327 19.3267C111.401 18.0396 109.975 16.7471 108.42 16.6961C106.408 16.6303 105.259 17.9769 105.082 19.3267C107.166 19.3267 109.246 19.3267 111.327 19.3267Z" fill="#0F0518"/>
<path d="M76.1775 22.2568C76.2476 22.3949 76.3049 22.5223 76.3761 22.6413C76.8912 23.5047 77.7036 23.8053 78.652 23.7734C79.0407 23.7607 79.4538 23.6874 79.8054 23.5302C80.5828 23.1829 80.6423 22.2154 79.901 21.8065C79.405 21.5325 78.8389 21.3838 78.2983 21.1927C77.7482 20.9983 77.1811 20.8507 76.6416 20.6319C75.2578 20.0722 74.5908 19.1738 74.611 17.8866C74.6322 16.4794 75.3353 15.4832 76.6203 14.9745C78.3812 14.2778 80.0719 14.4371 81.596 15.6393C81.9868 15.9484 82.2895 16.3403 82.5359 16.8256C81.8891 17.1888 81.254 17.5457 80.5976 17.9142C80.5403 17.825 80.4914 17.7549 80.4468 17.6816C79.8787 16.7523 78.4895 16.3934 77.5379 16.9297C76.82 17.3354 76.7658 18.2094 77.4774 18.6173C77.9224 18.8721 78.4375 19.0113 78.9281 19.1833C79.5707 19.4074 80.2355 19.572 80.8621 19.8312C82.8141 20.6383 83.4152 22.9026 82.1185 24.5264C81.5524 25.2358 80.7718 25.6012 79.8999 25.7796C78.6382 26.0377 77.3988 25.975 76.2104 25.4408C75.3682 25.0627 74.732 24.4542 74.2892 23.6417C74.1936 23.4654 74.2053 23.3709 74.3933 23.2679C74.92 22.979 75.4351 22.6678 75.9566 22.3662C76.0235 22.3291 76.0957 22.2983 76.1775 22.2568Z" fill="#0F0518"/>
<path d="M115.783 25.6481C115.783 22.035 115.783 18.4666 115.783 14.8822C116.552 14.8822 117.307 14.8822 118.091 14.8822C118.091 15.4334 118.091 15.9687 118.091 16.504C118.831 15.2317 119.952 14.6932 121.393 14.6709C121.393 15.5035 121.393 16.3202 121.393 17.1826C121.26 17.1826 121.123 17.1762 120.986 17.1837C120.037 17.2368 119.198 17.5235 118.618 18.3338C118.273 18.816 118.116 19.3693 118.11 19.9545C118.095 21.7323 118.1 23.5091 118.095 25.287C118.094 25.6491 118.094 25.6491 117.74 25.6491C117.097 25.6481 116.454 25.6481 115.783 25.6481Z" fill="#0F0518"/>
<path d="M9.8378 14.0655C9.8378 14.0985 9.8378 14.1314 9.8378 14.1643C9.8378 15.3249 9.08466 15.8311 8.15867 15.2961C7.23269 14.7611 6.47955 13.3865 6.47955 12.2259C6.47955 12.193 6.47955 12.1601 6.47955 12.1271L0.837208 8.86768V27.1816L15.4884 35.639V17.325L9.8378 14.0655Z" fill="#0F0518"/>
<path d="M17.1634 9.83877C17.1634 9.8717 17.1634 9.90462 17.1634 9.93755C17.1634 11.0981 16.4102 11.6043 15.4843 11.0693C14.5583 10.5343 13.8051 9.15972 13.8051 7.99915C13.8051 7.96622 13.8051 7.9333 13.8051 7.90038L8.16279 4.64502V11.1969L17.1346 16.3783V28.1404L22.814 31.4204V13.1065L17.1634 9.83877Z" fill="#0F0518"/>
<path d="M24.489 5.61633C24.489 5.64925 24.489 5.68218 24.489 5.7151C24.489 6.87567 23.7358 7.38188 22.8098 6.84686C21.8838 6.31185 21.1307 4.93727 21.1307 3.7767C21.1307 3.74378 21.1307 3.71085 21.1307 3.67793L15.4884 0.418457V6.97033L24.4601 12.1517V23.9138L30.1395 27.1939V8.87992L24.489 5.61633Z" fill="#0F0518"/>
</svg>
